<svg id="WellSky_Logo" data-name="WellSky Logo" xmlns="http://www.w3.org/2000/svg" viewBox="0 0 1040.1 360.09"><defs><style>.cls-1{fill:none;}.cls-2{fill:#fff;}</style></defs><rect class="cls-1" width="1040.1" height="360.09"/><path id="_Compound_Path_" data-name="&lt;Compound Path&gt;" class="cls-2" d="M346,145.1a2.38,2.38,0,0,0-2.16-1.36,2.41,2.41,0,0,0-1,.23l-36.88,17.6L254.37,109.1a2.45,2.45,0,0,0-3.45,0L170.6,189.34l-19.72-5.16a4.53,4.53,0,0,0-1.24-.21,2.83,2.83,0,0,0-2.48,1.66L108.39,251.7H396.56Zm-5,9.16,39.66,83.68L312.1,167.87Zm-88.3-34.87,45.16,46-77.33,37-40.36-10.55ZM124.92,243.2,153,193.51l191.25,49.71Zm107.4-37.72L304,171.71l70.11,71Zm666,58.17c-4.85,13.57-13.41,20.35-25.2,20.35a50,50,0,0,1-10.34-1.29V268.82h4.2c8.4,0,13.24-3.23,15.83-10.82l2.1-6.3-28.59-80.44h19.54l18.74,58.31,17.93-58.31h19.23ZM749.51,191.77l-18.42-5.33c-8.56-2.42-13.73-6.78-13.73-14.54,0-10.33,8.24-14.86,19.39-14.86,12.92,0,20.51,6.3,21.48,17.93H776c-.81-20.51-17.28-33.11-39.09-33.11-21.49,0-38.45,11.79-38.45,30.37,0,15.5,9.53,25.2,28.11,30.53l15.67,4.52c11.79,3.39,15.5,7.27,15.5,16,0,9.53-8.39,14.7-19.7,14.7-14.54,0-23.58-6.14-24.72-19.06H695.55c.81,23.91,20,34.24,42.49,34.24,22.29,0,38.6-11.14,38.6-30.53,0-16.31-8.07-25.36-27.13-30.85m77.53,11,28.11-31.5H833.66l-28.1,32.47V138.47H787.79V251.7h17.77V225.37l9.85-10,25.2,36.35h21Zm-226.3-.17v1H566.33c1.62-11.3,7.43-19.38,17.93-19.38s16.48,7.27,16.48,18.41m-16.48-33c-22,0-36.5,18.09-36.5,41.68v2.26c0,23.74,13.89,39.57,37.31,39.57,12.76,0,25.52-4.68,32.31-15.18l-10-9.05c-5.17,6.46-12.28,9.86-21.32,9.86-12.12,0-19.23-8.72-20-21.17h52.66v-7.75c0-24.23-11.47-40.22-34.41-40.22m-35.38-26.33H530.31l-16.8,81.09L493.32,153H478.13l-20,71.4-15.67-81.09h-18.9L447.77,251.7h18.09l19.87-70.1,20.19,70.1H524Zm135.37-4.84H666.48V251.7h17.77Zm-53,113.23H649V138.47H631.27Z"/><path class="cls-2" d="M918,244.17a8,8,0,0,1,1-3.85,7.19,7.19,0,0,1,2.65-2.79,7.11,7.11,0,0,1,7.34,0,7.19,7.19,0,0,1,2.65,2.79,8.21,8.21,0,0,1,0,7.65A7.38,7.38,0,0,1,929,250.8a7.06,7.06,0,0,1-7.44,0A7.38,7.38,0,0,1,919,248,8,8,0,0,1,918,244.17Zm.87,0a7.06,7.06,0,0,0,.86,3.42,6.47,6.47,0,0,0,2.35,2.49,6.1,6.1,0,0,0,6.41,0,6.33,6.33,0,0,0,2.34-2.5,7.24,7.24,0,0,0,0-6.77,6.49,6.49,0,0,0-2.33-2.49,6.16,6.16,0,0,0-6.46,0,6.47,6.47,0,0,0-2.34,2.47A6.94,6.94,0,0,0,918.89,244.16Zm4.75.64v3.55h-1v-8.6h2.65a3.72,3.72,0,0,1,2.32.63,2.26,2.26,0,0,1,.81,1.91,2.15,2.15,0,0,1-1.45,2,1.77,1.77,0,0,1,1,.82,2.91,2.91,0,0,1,.28,1.34c0,.52,0,.9,0,1.13a2.7,2.7,0,0,0,.14.59v.16H927.4a7.37,7.37,0,0,1-.14-1.87,1.79,1.79,0,0,0-.39-1.3,1.82,1.82,0,0,0-1.3-.38Zm0-.92h1.86a2.09,2.09,0,0,0,1.36-.43,1.39,1.39,0,0,0,.54-1.14,1.58,1.58,0,0,0-.44-1.25,2.55,2.55,0,0,0-1.54-.39h-1.78Z"/></svg>