<svg version="1.1" xmlns="http://www.w3.org/2000/svg" viewBox="0 0 200.83217846155935 323.47573835371225" width="200.83217846155935" height="323.47573835371225">
    <!-- svg-source:excalidraw -->

    <defs>
        <style class="style-fonts">

        </style>

    </defs>
    <rect x="0" y="0" width="200.83217846155935" height="323.47573835371225" fill="#ffffff"></rect><g stroke-opacity="0.8" fill-opacity="0.8" stroke-linecap="round" transform="translate(46.80702411142033 93.50236601465225) rotate(0 35.813314256574024 33.82368568676421)"><path d="M4.87 20.13 C4.87 20.13, 4.87 20.13, 4.87 20.13 M4.87 20.13 C4.87 20.13, 4.87 20.13, 4.87 20.13 M1.1 38.68 C7.21 27.93, 12.8 20.03, 22.91 11.67 M0.64 37.96 C8.56 26.43, 15.5 17.55, 25.06 9.36 M6.83 43.99 C18.06 29.38, 30.99 10.3, 45.01 4.34 M6.02 45.27 C11.55 35.86, 21.07 23.26, 40.95 2.32 M9.01 53.22 C24.36 36.22, 33.8 17.88, 53.08 3.27 M10.25 52.64 C23.01 37.07, 32.72 24.94, 50.66 5.29 M10.78 57.64 C31.3 35.08, 46.23 18.82, 57.03 7.23 M15.72 59.17 C27.18 43.14, 44.64 25.06, 59.74 9.88 M18.9 65.47 C36.21 46.65, 53.04 24.42, 64.35 10.96 M19.93 62.57 C33.75 44.9, 49.06 28.79, 65.36 11.8 M25.93 67.86 C43.93 48.67, 59.27 33.95, 66.41 18.17 M29.76 66.08 C41.86 51.45, 51.23 40.1, 68.73 18.72 M37.39 68.19 C51.15 58.16, 56.8 42.06, 69.24 29.7 M34.64 70.7 C42.44 60.6, 49.26 51.52, 73.86 27.43 M48.95 66.15 C58.34 63.33, 61.29 56.86, 69.46 37.65 M47.85 68.22 C55.08 58.61, 62.28 52.3, 73.6 40.92" stroke="#ffffff" stroke-width="1" fill="none"></path><path d="M18.61 5.31 C24.25 2.42, 34 1.67, 40.63 2.13 C47.27 2.59, 53.56 4.02, 58.44 8.08 C63.32 12.14, 67.98 19.55, 69.9 26.51 C71.82 33.47, 72.4 43.57, 69.95 49.85 C67.51 56.13, 61.43 61.12, 55.24 64.17 C49.06 67.22, 39.86 69.3, 32.82 68.15 C25.79 67, 18.6 61.91, 13.03 57.28 C7.46 52.66, 0.77 46.55, -0.62 40.39 C-2 34.23, -1.09 27.24, 4.71 20.32 C10.5 13.41, 26.88 1.54, 34.17 -1.1 C41.47 -3.75, 48.7 4, 48.48 4.44 M14.54 5.48 C19.94 1.48, 27.85 1.24, 34.71 1.12 C41.57 0.99, 49.76 1.5, 55.68 4.73 C61.6 7.97, 67.73 13.86, 70.21 20.51 C72.69 27.16, 72.35 38.52, 70.56 44.63 C68.76 50.75, 64.83 53.66, 59.43 57.22 C54.03 60.77, 44.75 65.11, 38.16 65.95 C31.57 66.8, 25.84 65.75, 19.88 62.29 C13.93 58.82, 6.06 50.9, 2.44 45.17 C-1.17 39.44, -3.7 33.69, -1.8 27.9 C0.09 22.1, 11.02 13.35, 13.8 10.4 C16.58 7.44, 15.15 10.26, 14.87 10.15" stroke="#000000" stroke-width="2" fill="none"></path></g><g stroke-linecap="round"><g stroke-opacity="0.8" fill-opacity="0.8" transform="translate(68.69293837932616 161.1497373881798) rotate(0 14.947501578521223 27.149360127096532)" fill-rule="evenodd"><path d="M0 0 C0 0, 0 0, 0 0 M0 0 C0 0, 0 0, 0 0 M-3.44 13.67 C6.15 9.52, 7.28 1.84, 6.83 2.89 M-2.03 13.87 C0.66 11.85, 4.98 5.66, 11.48 1.72 M-9.53 31.69 C5.94 23.4, 11.88 14.47, 23.62 -1.66 M-7.89 31.9 C5.48 21.06, 14.06 5.98, 22 -0.9 M-7.13 40.91 C6.41 29.8, 22.23 17.52, 34.56 -1.35 M-6.17 41.66 C7.28 28.88, 19.13 17.32, 36.24 -1.95 M-4.45 50.61 C11.07 41.86, 15.69 29.6, 34.33 11.24 M-4.37 51.4 C9.2 37.89, 22.78 25.36, 36.25 7.74 M-1.65 58.26 C17.56 42.27, 25.15 29.66, 36.46 20.99 M1.85 58.96 C15.66 43.76, 28.93 30.4, 37.23 18.63 M9.4 61.2 C17.31 51.81, 26.54 46.06, 35.08 35.07 M12.89 60.44 C21.8 52.21, 29.33 39.46, 35.36 30.3 M23.01 56.57 C28.41 50.92, 35.63 48.69, 41.5 39.32 M21.21 60.98 C28.62 52.98, 32.81 47.67, 36.42 40.67 M34.6 58.19 C34.31 57.22, 35.58 56.53, 36.15 56.02 M33.75 58.68 C34.64 57.47, 35.45 56.49, 36.48 55.78" stroke="#ffffff" stroke-width="1" fill="none"></path><path d="M-1.44 0.47 C-2.54 5.76, -9.02 23.25, -8.56 32.95 C-8.1 42.66, -6.57 55.17, 1.33 58.7 C9.23 62.24, 33.4 60.4, 38.81 54.17 C44.23 47.94, 34.46 30.55, 33.8 21.32 C33.13 12.09, 37.37 1.94, 34.83 -1.2 C32.28 -4.35, 24.13 1.98, 18.53 2.44 C12.93 2.9, 4.16 1.63, 1.24 1.56 M2.98 -1.74 C2.91 2.54, -2.96 19, -3.42 28.24 C-3.88 37.49, -5.69 49.17, 0.24 53.72 C6.18 58.27, 25.86 60.93, 32.21 55.55 C38.56 50.18, 37.42 31.14, 38.33 21.47 C39.24 11.8, 41.93 1, 37.69 -2.46 C33.46 -5.93, 19.27 -0.02, 12.9 0.66 C6.53 1.34, 2.03 1.73, -0.52 1.6" stroke="#000000" stroke-width="2" fill="none"></path></g></g><mask></mask><g stroke-linecap="round"><g stroke-opacity="0.8" fill-opacity="0.8" transform="translate(66.8826133393244 164.00501793935348) rotate(0 -22.927261282775042 28.871366059790684)"><path d="M0.79 1.9 C-9.85 11.51, -25.9 14.45, -47.89 32.74 M0.88 1.11 C-15.97 15.15, -35.5 25.23, -45.98 35.43 M-47.88 36.26 C-34.59 32.91, -21.49 35.96, -6.34 43.16 M-45.22 33.72 C-35.99 34.78, -27.83 38.43, -4.17 39.11 M-4.87 40.51 C-11.53 42.27, -11.73 52.46, -18.26 59.98 M-3.03 39.9 C-10.27 47.56, -15.2 53.11, -21.3 57.4" stroke="#000000" stroke-width="2" fill="none"></path></g></g><mask></mask><g stroke-linecap="round"><g stroke-opacity="0.8" fill-opacity="0.8" transform="translate(107.07608373628729 158.3439657707671) rotate(0 25.757787367068204 21.228945632198716)"><path d="M1.44 3.82 C4.09 7.23, 12.4 16.9, 35.98 46.38 M0.72 1.45 C11.79 14.94, 25.97 34.37, 33.4 42.84 M30.51 38.69 C34.89 31.21, 40.4 28.47, 48.22 11.02 M33.65 42.07 C38.85 33.13, 45.47 18.52, 51.37 7.99" stroke="#000000" stroke-width="2" fill="none"></path></g></g><mask></mask><g stroke-linecap="round"><g stroke-opacity="0.8" fill-opacity="0.8" transform="translate(160.28997412099966 166.269438806788) rotate(0 7.925473036020854 -5.094946951727692)"><path d="M0.53 -0.44 C1.39 -1.84, 2.9 -6.65, 5.43 -8.21 C7.96 -9.76, 13.86 -9.51, 15.68 -9.76 M0.13 0.52 C0.88 -0.83, 2.36 -5.8, 4.88 -7.65 C7.4 -9.5, 13.54 -10.11, 15.25 -10.6" stroke="#000000" stroke-width="2" fill="none"></path></g></g><mask></mask><g stroke-linecap="round"><g stroke-opacity="0.8" fill-opacity="0.8" transform="translate(163.6866054221515 164.57112315621208) rotate(0 13.303472596178295 0.8491578252879481)"><path d="M-0.23 -0.28 C2.01 0.15, 9.42 1.91, 13.98 2.13 C18.55 2.36, 25 1.28, 27.15 1.07 M0.65 0.77 C2.76 1.08, 9.06 1.47, 13.47 1.39 C17.87 1.3, 24.8 0.52, 27.07 0.26" stroke="#000000" stroke-width="2" fill="none"></path></g></g><mask></mask><g stroke-linecap="round"><g stroke-opacity="0.8" fill-opacity="0.8" transform="translate(162.55439498843418 165.13722837307068) rotate(0 13.02041998774898 4.528841734869058)"><path d="M-0.17 0.43 C2.13 1.69, 9.15 5.81, 13.56 7.3 C17.97 8.79, 24.17 9, 26.28 9.36 M0.75 0.18 C3.04 1.32, 9.19 5.21, 13.4 6.59 C17.62 7.97, 23.88 8.14, 26.06 8.45" stroke="#000000" stroke-width="2" fill="none"></path></g></g><mask></mask><g stroke-linecap="round"><g stroke-opacity="0.8" fill-opacity="0.8" transform="translate(162.55439498843418 169.09996489108113) rotate(0 9.340736078167652 6.227157385444956)"><path d="M0.54 0.5 C2.12 2.18, 6.24 8.44, 9.3 10.5 C12.36 12.55, 17.38 12.59, 18.88 12.85 M0.15 0.29 C1.69 1.77, 5.91 7.74, 8.99 9.69 C12.07 11.64, 17.1 11.54, 18.63 11.99" stroke="#000000" stroke-width="2" fill="none"></path></g></g><mask></mask><g stroke-linecap="round"><g stroke-opacity="0.8" fill-opacity="0.8" transform="translate(66.31650812246494 218.351118757783) rotate(0 -9.62378868659675 42.457891264397865)"><path d="M2.22 1.45 C6.09 27.25, 2.35 60.07, 7.45 76.99 M1.14 -1.16 C-1.32 22.86, 0.54 47.57, 5.73 74.21 M4.04 77.48 C-6.06 79.16, -11.57 83.08, -27.08 84.62 M4.4 74.93 C-4.17 79.5, -8.53 81.9, -22.66 86.03" stroke="#000000" stroke-width="2" fill="none"></path></g></g><mask></mask><g stroke-linecap="round"><g stroke-opacity="0.8" fill-opacity="0.8" transform="translate(107.07608373628729 218.91722397464167) rotate(0 11.888209554031498 45.28841734869102)"><path d="M2.9 -2.9 C-1.42 25.64, 4.54 52.95, 1.9 72.98 M-1.88 -1.4 C-0.33 17.88, 2.63 35.9, 2.11 75.98 M0.36 75.26 C12.2 80.9, 12.82 84.95, 21.63 94.56 M-0.77 76.75 C8.42 81.58, 15.43 85.53, 21.83 90.02" stroke="#000000" stroke-width="2" fill="none"></path></g></g><mask></mask><g stroke-linecap="round"><g transform="translate(25.299912690564042 107.6494427603654) rotate(0 56.02468029338935 -5.849966616980417)" fill-rule="evenodd"><path d="M-0.22 -0.94 L110.91 -1.97 L81.34 -11.01 L20.57 -9.64 L0.02 0.89" stroke="none" stroke-width="0" fill="#6aa6ab" fill-rule="evenodd"></path><path d="M0 0 C36.33 0.23, 76.79 0.47, 112.05 -1.35 M0 0 C36.35 -0.44, 70.61 -0.99, 112.05 -1.35 M112.05 -1.35 C103.63 -2.53, 99.14 -5.22, 81.9 -11.7 M112.05 -1.35 C103.32 -3.49, 94.84 -8.19, 81.9 -11.7 M81.9 -11.7 C63.42 -11.07, 44.36 -12.71, 19.35 -11.25 M81.9 -11.7 C59.13 -10.47, 34.27 -11.13, 19.35 -11.25 M19.35 -11.25 C12.89 -5.22, 5.14 -2.54, 0 0 M19.35 -11.25 C14.57 -7.51, 8.3 -3.93, 0 0 M0 0 C0 0, 0 0, 0 0 M0 0 C0 0, 0 0, 0 0" stroke="#000000" stroke-width="1" fill="none"></path></g></g><mask></mask><g stroke-linecap="round"><g transform="translate(45.099799701882375 96.39950695847996) rotate(0 31.04982281320373 -6.749961481131258)" fill-rule="evenodd"><path d="M-1.14 -0.62 L-1.46 -12.36 L63.77 -11.89 L63.02 0.44 L-0.25 0.49" stroke="none" stroke-width="0" fill="#ffffa4" fill-rule="evenodd"></path><path d="M0 0 C0.84 -2.6, -0.07 -6.7, -0.9 -13.05 M0 0 C-0.92 -3.72, -1.01 -6.81, -0.9 -13.05 M-0.9 -13.05 C22.63 -12.89, 44.55 -12.87, 62.55 -13.5 M-0.9 -13.05 C17.09 -14.57, 34.65 -14.41, 62.55 -13.5 M62.55 -13.5 C62.11 -9.53, 63.85 -2.61, 63 -0.45 M62.55 -13.5 C62.16 -8.71, 63.46 -3.83, 63 -0.45 M63 -0.45 C42.45 0.46, 20.85 -1.22, 0 0 M63 -0.45 C43.98 1, 25.28 0.15, 0 0 M0 0 C0 0, 0 0, 0 0 M0 0 C0 0, 0 0, 0 0" stroke="#000000" stroke-width="1" fill="none"></path></g></g><mask></mask><g stroke-linecap="round"><g transform="translate(107.19944532828994 82.44958656414208) rotate(0 -48.59972266414497 -35.77479584999561)" fill-rule="evenodd"><path d="M-0.57 1.79 L-24.97 -61.86 L-63.88 -54.2 L-85.23 -70.6 L-95.24 -47.09 L-88.05 -58.91 L-72.74 -38.43 L-54.35 -42.97 L-57.51 -0.88 L0.21 -1.1" stroke="none" stroke-width="0" fill="#6aa6ab" fill-rule="evenodd"></path><path d="M0 0 C-7.59 -18.91, -16.51 -34.44, -25.65 -60.75 M0 0 C-6.37 -15.32, -11.23 -30.39, -25.65 -60.75 M-25.65 -60.75 C-39.7 -58.08, -53.65 -57.19, -65.25 -55.8 M-25.65 -60.75 C-41.15 -59.68, -55.51 -57.3, -65.25 -55.8 M-65.25 -55.8 C-69.66 -60.17, -75.44 -64.65, -85.5 -72.45 M-65.25 -55.8 C-71.54 -62.21, -79.18 -67.28, -85.5 -72.45 M-85.5 -72.45 C-90.34 -64.64, -94.49 -52.04, -97.2 -48.15 M-85.5 -72.45 C-89.4 -63.72, -93.3 -54.94, -97.2 -48.15 M-97.2 -48.15 C-91.8 -50.89, -88.83 -57.24, -86.85 -58.05 M-97.2 -48.15 C-94.51 -51.18, -92.03 -53.76, -86.85 -58.05 M-86.85 -58.05 C-81.01 -53.22, -77.58 -48.6, -71.55 -40.05 M-86.85 -58.05 C-82.29 -51.59, -77.53 -45.48, -71.55 -40.05 M-71.55 -40.05 C-66.29 -41.37, -59.66 -42.98, -54 -43.65 M-71.55 -40.05 C-67.74 -40.65, -63.1 -41.22, -54 -43.65 M-54 -43.65 C-56.58 -30.9, -57.16 -15.97, -58.05 0.9 M-54 -43.65 C-55.41 -27.19, -56.4 -11.43, -58.05 0.9 M-58.05 0.9 C-47.11 -0.08, -34.42 0.47, 0 0 M-58.05 0.9 C-39.83 0.11, -20.83 0.61, 0 0 M0 0 C0 0, 0 0, 0 0 M0 0 C0 0, 0 0, 0 0" stroke="#000000" stroke-width="1" fill="none"></path></g></g><mask></mask><g stroke-linecap="round"><g transform="translate(171.9990755471498 305.64831287354866) rotate(0 -5.262606369082022 -101.02442350093104)" fill-rule="evenodd"><path d="M1.22 1.61 L0.47 -200.26 L-9.7 -201.56 L-12.68 -1.32 L-0.5 1.04" stroke="none" stroke-width="0" fill="#ac9173" fill-rule="evenodd"></path><path d="M0 0 C-1.11 -65.02, -1.1 -133.79, 0.45 -201.15 M0 0 C1.98 -47, 1.98 -92.21, 0.45 -201.15 M0.45 -201.15 C-3.02 -201.42, -5.22 -201.53, -9.45 -202.05 M0.45 -201.15 C-1.21 -201.44, -3.89 -201.82, -9.45 -202.05 M-9.45 -202.05 C-6.98 -159.62, -7.75 -120.95, -10.98 0 M-9.45 -202.05 C-8.22 -146.69, -8.13 -91.93, -10.98 0 M-10.98 0 C-7.55 0.95, -3.55 0.06, 0 0 M-10.98 0 C-6.34 0.07, -1.75 -0.44, 0 0 M0 0 C0 0, 0 0, 0 0 M0 0 C0 0, 0 0, 0 0" stroke="#000000" stroke-width="1" fill="none"></path></g></g><mask></mask><g stroke-linecap="round" transform="translate(154.06517546694215 88.7860300689173) rotate(0 13.59960580698067 7.346913481932077)"><path d="M0.84 0.06 L26.34 -0.29 L27.54 14.81 L-0.11 14.22" stroke="none" stroke-width="0" fill="#ac9173"></path><path d="M0 0 C6 -1.02, 12.47 -0.82, 27.2 0 M0 0 C7.17 0.28, 14.01 0.05, 27.2 0 M27.2 0 C27.84 5.14, 26.58 9.96, 27.2 14.69 M27.2 0 C27.25 3.45, 26.92 7.51, 27.2 14.69 M27.2 14.69 C18.63 13.8, 8.67 15.52, 0 14.69 M27.2 14.69 C20.64 14.84, 13.26 14.66, 0 14.69 M0 14.69 C0.41 11.46, 0.7 8.45, 0 0 M0 14.69 C0.32 10.02, 0.01 6.25, 0 0" stroke="#000000" stroke-width="1" fill="none"></path></g><g stroke-linecap="round" transform="translate(153.12727161818486 58.773106908684156) rotate(0 13.912240423233094 15.162778888242784)"><path d="M13.37 -0.13 C16.26 -0.32, 20.3 1.54, 22.73 3.58 C25.16 5.63, 27.34 9, 27.94 12.12 C28.55 15.24, 27.84 19.53, 26.37 22.31 C24.91 25.1, 22.02 27.65, 19.16 28.84 C16.29 30.02, 12 30.42, 9.19 29.43 C6.38 28.43, 3.76 25.6, 2.32 22.87 C0.88 20.15, 0.08 16.21, 0.54 13.08 C1 9.95, 2.85 6.3, 5.11 4.12 C7.36 1.94, 12.41 0.64, 14.05 -0.01 C15.69 -0.66, 14.96 -0.13, 14.93 0.2 M15.15 0.66 C18.08 0.63, 21.84 1.85, 24.01 4.03 C26.18 6.2, 28.05 10.39, 28.17 13.71 C28.28 17.03, 26.54 21.18, 24.7 23.95 C22.87 26.71, 19.91 29.42, 17.17 30.29 C14.42 31.16, 10.94 30.58, 8.25 29.16 C5.57 27.74, 2.31 24.75, 1.06 21.78 C-0.2 18.82, -0.02 14.56, 0.71 11.35 C1.44 8.14, 2.87 4.48, 5.42 2.53 C7.98 0.58, 14.42 0.02, 16.06 -0.37 C17.69 -0.77, 15.33 -0.22, 15.22 0.13" stroke="none" stroke-width="0" fill="#fab005"></path><path d="M10.95 0.5 C13.77 -0.28, 18.27 0.53, 20.92 2.12 C23.57 3.7, 25.87 7.02, 26.88 10.04 C27.88 13.05, 27.84 17.16, 26.94 20.2 C26.03 23.25, 24.06 26.66, 21.44 28.31 C18.82 29.96, 14.28 30.55, 11.22 30.08 C8.16 29.62, 4.95 27.99, 3.08 25.52 C1.2 23.05, -0.02 18.69, -0.04 15.28 C-0.07 11.87, 0.93 7.54, 2.94 5.06 C4.94 2.57, 10.43 1.1, 12 0.38 C13.58 -0.34, 12.34 0.6, 12.36 0.74 M13.18 0.36 C16.01 0.02, 20.36 1.19, 22.75 3.03 C25.13 4.86, 26.98 8.23, 27.49 11.37 C28 14.5, 27.03 18.81, 25.81 21.82 C24.59 24.83, 22.78 27.99, 20.16 29.43 C17.53 30.87, 12.99 31.43, 10.06 30.46 C7.13 29.49, 4.17 26.42, 2.57 23.62 C0.98 20.83, 0.07 17, 0.47 13.67 C0.87 10.34, 2.88 5.82, 4.97 3.66 C7.07 1.49, 11.61 1.22, 13.05 0.67 C14.48 0.13, 13.7 0.27, 13.59 0.38" stroke="#000000" stroke-width="1" fill="none"></path></g><g stroke-linecap="round"><g transform="translate(43.47858282729146 131.9831355978157) rotate(0 38.51758245509909 53.04883765624467)" fill-rule="evenodd"><path d="M-2.09 -0.7 C1.48 0.57, 16.93 7.58, 23.49 7.77 C30.05 7.96, 33.23 0.58, 37.28 0.42 C41.33 0.26, 44.02 5.27, 47.82 6.81 C51.62 8.35, 54.97 9.98, 60.09 9.65 C65.21 9.32, 76.51 2.42, 78.53 4.86 C80.54 7.29, 74.4 18.52, 72.16 24.24 C69.91 29.95, 66.54 34.53, 65.05 39.16 C63.55 43.79, 63.99 47.23, 63.17 52.02 C62.36 56.81, 61.05 66.65, 60.16 67.91 C59.27 69.17, 59.42 61.99, 57.84 59.59 C56.26 57.19, 51.51 52.28, 50.67 53.51 C49.83 54.73, 52.24 62.33, 52.79 66.94 C53.35 71.55, 55.68 74.85, 53.99 81.16 C52.3 87.48, 44.12 104.02, 42.64 104.83 C41.17 105.64, 46.62 92, 45.16 86.03 C43.69 80.05, 35.59 69.96, 33.84 68.99 C32.08 68.02, 35.82 75.97, 34.62 80.18 C33.43 84.39, 27.32 95.43, 26.66 94.25 C25.99 93.06, 32.08 79.23, 30.63 73.08 C29.17 66.93, 21.22 61.71, 17.94 57.35 C14.66 52.99, 13.7 54.14, 10.97 46.93 C8.24 39.73, 3.47 21.71, 1.56 14.12 C-0.36 6.53, -0.36 3.55, -0.52 1.37" stroke="none" stroke-width="0" fill="#ced4da" fill-rule="evenodd"></path><path d="M-0.89 -0.54 C3.2 0.68, 16.88 6.07, 23.38 6.49 C29.89 6.91, 33.77 1.82, 38.14 1.98 C42.51 2.14, 45.74 6.33, 49.59 7.43 C53.44 8.53, 56.69 9.15, 61.26 8.57 C65.83 7.99, 75.18 1.69, 77.03 3.96 C78.87 6.22, 74.31 16.5, 72.35 22.16 C70.39 27.82, 66.24 32.68, 65.26 37.91 C64.28 43.14, 67.21 48.84, 66.45 53.54 C65.69 58.23, 62.13 65.25, 60.7 66.09 C59.26 66.92, 59.55 60.84, 57.84 58.55 C56.13 56.26, 51.41 50.76, 50.44 52.37 C49.47 53.98, 51.62 63.57, 52.03 68.21 C52.43 72.85, 54.19 73.98, 52.88 80.21 C51.57 86.44, 45.8 104.7, 44.19 105.58 C42.58 106.47, 44.54 91.77, 43.22 85.54 C41.9 79.3, 37.58 69.44, 36.27 68.2 C34.95 66.96, 37.17 73.43, 35.34 78.09 C33.52 82.75, 26.16 96.67, 25.32 96.15 C24.49 95.62, 31.3 81.15, 30.33 74.93 C29.36 68.71, 22.59 63.73, 19.49 58.83 C16.4 53.93, 14.87 53.14, 11.76 45.52 C8.65 37.91, 2.61 20.86, 0.84 13.11 C-0.92 5.36, 1.27 1.06, 1.16 -0.96 M0.85 1.78 C4.94 3.2, 16.67 7.83, 22.81 7.51 C28.95 7.19, 33.15 -0.31, 37.68 -0.15 C42.22 0.01, 46.31 6.96, 50.04 8.46 C53.76 9.95, 55.31 9.67, 60.05 8.84 C64.78 8.01, 76.26 0.97, 78.43 3.49 C80.61 6, 75.48 18.33, 73.1 23.95 C70.73 29.58, 65.47 32.54, 64.19 37.23 C62.91 41.92, 65.87 47.41, 65.41 52.1 C64.95 56.78, 62.73 64.64, 61.43 65.34 C60.12 66.05, 59.59 58.48, 57.56 56.34 C55.53 54.19, 50.07 50.56, 49.25 52.46 C48.42 54.36, 51.61 63.17, 52.61 67.74 C53.6 72.3, 56.49 73.67, 55.22 79.84 C53.95 86.01, 46.79 104.16, 44.99 104.76 C43.2 105.35, 46.03 89.35, 44.45 83.4 C42.88 77.45, 37.29 69.9, 35.56 69.06 C33.84 68.22, 35.54 73.79, 34.12 78.35 C32.71 82.91, 28.16 97.22, 27.08 96.41 C26 95.6, 29.1 79.86, 27.65 73.5 C26.2 67.14, 20.96 63.14, 18.39 58.25 C15.82 53.36, 15.09 51.81, 12.21 44.16 C9.34 36.51, 3.23 19.46, 1.15 12.32 C-0.93 5.18, 0.23 3.67, -0.26 1.31" stroke="#000000" stroke-width="1" fill="none"></path></g></g><mask></mask><g transform="translate(67.6269726876227 125.14214949770953) rotate(0 0.00004999999999988347 0.00005000000000165983)" stroke="none"><path fill="#000000" d="M 1.57,-1.57 Q 1.57,-1.57 1.77,-1.27 1.98,-0.98 2.09,-0.64 2.20,-0.29 2.19,0.05 2.18,0.41 2.05,0.75 1.93,1.09 1.70,1.37 1.48,1.65 1.18,1.84 0.87,2.04 0.52,2.12 0.18,2.21 -0.17,2.18 -0.53,2.15 -0.86,2.01 -1.19,1.87 -1.46,1.63 -1.73,1.39 -1.90,1.07 -2.08,0.76 -2.15,0.41 -2.21,0.05 -2.17,-0.29 -2.12,-0.65 -1.96,-0.97 -1.80,-1.29 -1.54,-1.54 -1.29,-1.80 -0.97,-1.96 -0.65,-2.12 -0.29,-2.17 0.06,-2.21 0.41,-2.15 0.76,-2.08 1.07,-1.90 1.39,-1.73 1.63,-1.46 1.87,-1.19 2.01,-0.86 2.15,-0.53 2.18,-0.17 2.21,0.18 2.12,0.52 2.03,0.87 1.84,1.18 1.65,1.48 1.37,1.70 1.09,1.93 0.75,2.05 0.41,2.18 0.05,2.19 -0.30,2.20 -0.64,2.09 -0.98,1.98 -1.27,1.77 -1.57,1.56 -1.57,1.57 -1.57,1.57 -1.73,1.35 -1.90,1.14 -2.01,0.90 -2.12,0.66 -2.16,0.39 -2.21,0.13 -2.20,-0.13 -2.18,-0.40 -2.10,-0.65 -2.02,-0.91 -1.88,-1.14 -1.74,-1.36 -1.55,-1.55 -1.36,-1.74 -1.14,-1.88 -0.91,-2.02 -0.65,-2.10 -0.40,-2.18 -0.13,-2.20 0.13,-2.21 0.39,-2.16 0.66,-2.12 0.90,-2.01 1.14,-1.90 1.35,-1.73 1.57,-1.57 1.57,-1.57 L 1.57,-1.57 Z"></path></g><g transform="translate(95.5732420666583 125.9079754912773) rotate(0 0.000050000000000105516 0.00005000000000165983)" stroke="none"><path fill="#000000" d="M 1.57,-1.57 Q 1.57,-1.57 1.77,-1.27 1.98,-0.98 2.09,-0.64 2.20,-0.29 2.19,0.05 2.18,0.41 2.05,0.75 1.93,1.09 1.70,1.37 1.48,1.65 1.18,1.84 0.87,2.04 0.52,2.12 0.18,2.21 -0.17,2.18 -0.53,2.15 -0.86,2.01 -1.19,1.87 -1.46,1.63 -1.73,1.39 -1.90,1.07 -2.08,0.76 -2.15,0.41 -2.21,0.05 -2.17,-0.29 -2.12,-0.65 -1.96,-0.97 -1.80,-1.29 -1.54,-1.54 -1.29,-1.80 -0.97,-1.96 -0.65,-2.12 -0.29,-2.17 0.06,-2.21 0.41,-2.15 0.76,-2.08 1.07,-1.90 1.39,-1.73 1.63,-1.46 1.87,-1.19 2.01,-0.86 2.15,-0.53 2.18,-0.17 2.21,0.18 2.12,0.52 2.03,0.87 1.84,1.18 1.65,1.48 1.37,1.70 1.09,1.93 0.75,2.05 0.41,2.18 0.05,2.19 -0.30,2.20 -0.64,2.09 -0.98,1.98 -1.27,1.77 -1.57,1.56 -1.57,1.57 -1.57,1.57 -1.73,1.35 -1.90,1.14 -2.01,0.90 -2.12,0.66 -2.16,0.39 -2.21,0.13 -2.20,-0.13 -2.18,-0.40 -2.10,-0.65 -2.02,-0.91 -1.88,-1.14 -1.74,-1.36 -1.55,-1.55 -1.36,-1.74 -1.14,-1.88 -0.91,-2.02 -0.65,-2.10 -0.40,-2.18 -0.13,-2.20 0.13,-2.21 0.39,-2.16 0.66,-2.12 0.90,-2.01 1.14,-1.90 1.35,-1.73 1.57,-1.57 1.57,-1.57 L 1.57,-1.57 Z"></path></g><g stroke-linecap="round"><g transform="translate(62.335262909683934 121.55708077615238) rotate(0 5.790073116356496 -1.9300243721188508)"><path d="M0.17 -0.07 C2.1 -0.76, 9.9 -3.42, 11.8 -3.97 M-0.4 -0.58 C1.45 -1.2, 9.55 -2.72, 11.49 -3.32" stroke="#000000" stroke-width="1" fill="none"></path></g></g><mask></mask><g stroke-linecap="round"><g transform="translate(93.85899432095825 118.98371494666061) rotate(0 5.30756702332684 3.5383780155511886)"><path d="M0.22 -0.11 C1.96 1.17, 8.86 6.45, 10.61 7.57 M-0.33 -0.64 C1.33 0.5, 8.39 5.59, 10.18 6.86" stroke="#000000" stroke-width="1" fill="none"></path></g></g><mask></mask><g stroke-linecap="round"><g stroke-opacity="0.8" fill-opacity="0.8" transform="translate(74.50066471081436 153.1400793759538) rotate(180.707313349537 6.6169184039983975 -2.4813444014994275)"><path d="M0 0.49 C0.8 -0.39, 2.86 -5.1, 5.06 -5.42 C7.26 -5.73, 11.74 -2.11, 13.19 -1.4 M-0.67 0.27 C0.05 -0.55, 2.43 -4.75, 4.68 -4.95 C6.93 -5.15, 11.52 -1.66, 12.82 -0.95" stroke="#000000" stroke-width="1" fill="none"></path></g></g><mask></mask></svg>